<svg width="400" height="300" viewBox="0 0 400 300" fill="none" xmlns="http://www.w3.org/2000/svg" role="img" aria-label="Compresseur à vis">
  <rect width="400" height="300" fill="#E8EDF4"/>
  <rect width="400" height="300" fill="url(#sg)"/>
  <defs>
    <linearGradient id="sg" x1="0" y1="0" x2="0" y2="1">
      <stop offset="0" stop-color="#eef2f8"/>
      <stop offset="1" stop-color="#d8e0ec"/>
    </linearGradient>
  </defs>
  <!-- Ombre -->
  <ellipse cx="200" cy="250" rx="130" ry="16" fill="#0D1F3C" opacity="0.10"/>
  <!-- Corps -->
  <rect x="110" y="70" width="180" height="160" rx="12" fill="#1A3A6B"/>
  <rect x="110" y="70" width="180" height="36" rx="12" fill="#162d52"/>
  <!-- Panneau -->
  <rect x="132" y="92" width="62" height="46" rx="6" fill="#0D1F3C"/>
  <circle cx="150" cy="112" r="5" fill="#52d869"/>
  <circle cx="168" cy="112" r="5" fill="#60A5FA"/>
  <rect x="140" y="125" width="40" height="5" rx="2" fill="#ffffff" opacity="0.4"/>
  <!-- Grille -->
  <g stroke="#2563EB" stroke-width="4" stroke-linecap="round">
    <path d="M214 96v110"/><path d="M232 96v110"/><path d="M250 96v110"/><path d="M268 96v110"/>
  </g>
  <!-- Pieds -->
  <rect x="128" y="230" width="16" height="20" rx="3" fill="#4A5568"/>
  <rect x="256" y="230" width="16" height="20" rx="3" fill="#4A5568"/>
</svg>
