<svg width="400" height="300" viewBox="0 0 400 300" fill="none" xmlns="http://www.w3.org/2000/svg" role="img" aria-label="Compresseur à piston">
  <defs>
    <linearGradient id="pg" x1="0" y1="0" x2="0" y2="1">
      <stop offset="0" stop-color="#eef2f8"/>
      <stop offset="1" stop-color="#d8e0ec"/>
    </linearGradient>
  </defs>
  <rect width="400" height="300" fill="url(#pg)"/>
  <ellipse cx="200" cy="252" rx="140" ry="16" fill="#0D1F3C" opacity="0.10"/>
  <!-- Réservoir horizontal -->
  <rect x="80" y="180" width="240" height="56" rx="28" fill="#2563EB"/>
  <ellipse cx="320" cy="208" rx="14" ry="28" fill="#1D4ED8"/>
  <!-- Pieds -->
  <path d="M110 236l-12 22M150 236l-4 22M250 236l4 22M290 236l12 22" stroke="#4A5568" stroke-width="8" stroke-linecap="round"/>
  <!-- Bloc moteur -->
  <rect x="150" y="120" width="90" height="62" rx="8" fill="#1A3A6B"/>
  <circle cx="195" cy="151" r="22" fill="#0D1F3C"/>
  <circle cx="195" cy="151" r="10" fill="#4A5568"/>
  <!-- Cylindres -->
  <g fill="#162d52">
    <rect x="165" y="86" width="22" height="40" rx="4"/>
    <rect x="203" y="86" width="22" height="40" rx="4"/>
  </g>
  <g stroke="#E8EDF4" stroke-width="2" opacity="0.5">
    <path d="M165 96h22M165 104h22M165 112h22M203 96h22M203 104h22M203 112h22"/>
  </g>
  <!-- Manomètre -->
  <circle cx="280" cy="150" r="22" fill="#0D1F3C"/>
  <circle cx="280" cy="150" r="15" fill="#162d52" stroke="#60A5FA" stroke-width="2"/>
  <path d="M280 150l8-7" stroke="#60A5FA" stroke-width="2.5" stroke-linecap="round"/>
</svg>
