<?xml version="1.0" encoding="utf-8"?>
<!-- Generator: Adobe Illustrator 23.0.1, SVG Export Plug-In . SVG Version: 6.00 Build 0)  -->
<svg version="1.1" id="Calque_1" xmlns="http://www.w3.org/2000/svg" xmlns:xlink="http://www.w3.org/1999/xlink" x="0px" y="0px"
	 viewBox="0 0 114 62" style="enable-background:new 0 0 114 62;" xml:space="preserve">
<style type="text/css">
	.st0{fill:#FFED00;}
</style>
<g>
	<g>
		<path class="st0" d="M93.176,30.501c0,2.407-1.895,4.358-4.233,4.358c-2.338,0-4.234-1.951-4.234-4.358
			c0-2.407,1.896-4.358,4.234-4.358C91.281,26.143,93.176,28.094,93.176,30.501 M97.051,30.501c0-4.62-3.63-7.996-8.108-7.996
			c-4.479,0-8.108,3.376-8.108,7.996c0,4.62,3.629,7.997,8.108,7.997C93.42,38.498,97.051,35.122,97.051,30.501"/>
		<path class="st0" d="M75.959,32.818c-0.749,1.225-2.075,2.04-3.586,2.04c-2.339,0-4.234-1.951-4.234-4.358
			s1.896-4.358,4.234-4.358c1.526,0,2.863,0.831,3.608,2.077l4.192,0.018c-0.966-3.42-4.093-5.734-7.8-5.734
			c-4.478,0-8.108,3.376-8.108,7.996s3.63,7.997,8.108,7.997c3.699,0,6.821-2.306,7.793-5.713L75.959,32.818z"/>
		<path class="st0" d="M59.5,32.818c-0.749,1.225-2.075,2.04-3.586,2.04c-2.338,0-4.234-1.951-4.234-4.358s1.896-4.358,4.234-4.358
			c1.526,0,2.863,0.831,3.608,2.077l4.192,0.018c-0.966-3.42-4.092-5.734-7.8-5.734c-4.478,0-8.108,3.376-8.108,7.996
			s3.63,7.997,8.108,7.997c3.7,0,6.821-2.306,7.794-5.713L59.5,32.818z"/>
	</g>
	<path class="st0" d="M37.836,33.978l2.128-3.201l2.128,3.201H37.836z M45.027,38.391l4.539-0.024L39.964,23.96l-9.602,14.408
		l4.539,0.024l1.261-1.896h7.604L45.027,38.391z"/>
	<polygon class="st0" points="29.025,33.635 29.025,33.635 35.583,24.216 31.237,24.169 26.822,30.498 22.408,24.169 18.06,24.216 
		24.639,33.627 24.624,33.648 24.624,38.346 29.001,38.346 	"/>
	<path class="st0" d="M56.656,56.289l-44.11-15.708c-0.035-0.013-0.071-0.026-0.108-0.043c-0.283-0.12-6.931-3.035-6.931-9.801
		c0-0.034,0.001-0.068,0.003-0.103c0.411-7.295,5.626-9.604,5.849-9.699c0.028-0.012,0.057-0.024,0.086-0.034L56.314,4.457
		c0.203-0.074,0.415-0.112,0.631-0.112c0.218,0,0.431,0.038,0.635,0.114l44.439,16.444c0.028,0.01,0.055,0.021,0.084,0.034
		c0.284,0.12,6.932,3.038,6.932,9.801c0,6.766-6.648,9.68-6.934,9.802c-0.035,0.015-0.069,0.029-0.103,0.041L57.886,56.289
		C57.49,56.43,57.052,56.43,56.656,56.289 M103.892,16.384c-0.135-0.057-0.27-0.11-0.408-0.159L59.372,0.517
		c-1.534-0.546-3.209-0.546-4.743,0L10.516,16.225c-0.137,0.049-0.273,0.102-0.407,0.159C6.355,17.989,0,22.874,0,31
		c0,8.127,6.355,13.011,10.109,14.615c0.134,0.058,0.27,0.11,0.407,0.16l44.113,15.709c1.534,0.546,3.208,0.546,4.743,0
		l44.112-15.709c0.138-0.049,0.273-0.102,0.408-0.16C107.646,44.011,114,39.127,114,31C114,22.874,107.646,17.99,103.892,16.384"/>
	<path class="st0" d="M57.271,52.061c-2.548-0.907-42.483-15.128-43.222-15.391c-0.277-0.126-4.307-2.027-4.347-5.877
		c0.283-4.423,3.068-5.887,3.293-5.998c0.308-0.113,5.935-2.175,13.073-4.791C38.43,15.473,55.322,9.282,56.941,8.689
		c0.912,0.337,6.662,2.465,13.701,5.07c12.418,4.595,29.374,10.869,29.841,11.042c0.268,0.122,4.364,2.047,4.364,5.937
		c0,3.84-3.865,5.711-4.354,5.932C99.751,36.935,59.44,51.289,57.271,52.061 M100.698,37.152c0.478-0.215,4.672-2.219,4.672-6.414
		c0-4.199-4.202-6.204-4.682-6.418l-0.017-0.007c-0.104-0.038-17.296-6.399-29.847-11.045c-7.342-2.716-13.281-4.914-13.792-5.103
		l-0.09-0.034l-0.091,0.033c-0.888,0.325-18.301,6.707-30.963,11.348c-7.297,2.674-13.016,4.771-13.085,4.796l-0.023,0.01
		c-0.337,0.161-3.301,1.712-3.601,6.452l-0.001,0.01v0.01c0.036,4.169,4.191,6.151,4.665,6.364l0.019,0.008
		c0.156,0.055,41.857,14.905,43.32,15.426l0.087,0.031l0.088-0.031c0.426-0.152,43.134-15.36,43.32-15.426L100.698,37.152z"/>
</g>
</svg>
